{
  "accessors": [
    {
      "bufferView": 2,
      "componentType": 5126,
      "count": 4,
      "max": [
        0.5,
        0.5,
        0.0
      ],
      "min": [
        -0.5,
        -0.5,
        0.0
      ],
      "type": "VEC3"
    },
    {
      "bufferView": 2,
      "byteOffset": 48,
      "componentType": 5126,
      "count": 4,
      "max": [
        0.0,
        0.0,
        1.0
      ],
      "min": [
        0.0,
        0.0,
        1.0
      ],
      "type": "VEC3"
    },
    {
      "bufferView": 1,
      "componentType": 5126,
      "count": 4,
      "max": [
        1.0,
        1.0
      ],
      "min": [
        0.0,
        0.0
      ],
      "type": "VEC2"
    },
    {
      "bufferView": 0,
      "componentType": 5125,
      "count": 6,
      "type": "SCALAR"
    },
    {
      "bufferView": 2,
      "byteOffset": 96,
      "componentType": 5126,
      "count": 3442,
      "max": [
        91.28473663330078,
        84.05567932128906,
        28.57893180847168
      ],
      "min": [
        -91.28474426269531,
        -84.05567932128906,
        -28.57893180847168
      ],
      "type": "VEC3"
    },
    {
      "bufferView": 2,
      "byteOffset": 41400,
      "componentType": 5126,
      "count": 3442,
      "max": [
        1.0,
        1.0,
        1.0
      ],
      "min": [
        -1.0,
        -1.0,
        -1.0
      ],
      "type": "VEC3"
    },
    {
      "bufferView": 1,
      "byteOffset": 32,
      "componentType": 5126,
      "count": 3442,
      "max": [
        0.0,
        0.0
      ],
      "min": [
        0.0,
        0.0
      ],
      "type": "VEC2"
    },
    {
      "bufferView": 0,
      "byteOffset": 24,
      "componentType": 5125,
      "count": 19680,
      "type": "SCALAR"
    },
    {
      "bufferView": 2,
      "byteOffset": 82704,
      "componentType": 5126,
      "count": 3530,
      "max": [
        91.28473663330078,
        84.05567932128906,
        28.57893180847168
      ],
      "min": [
        -91.28474426269531,
        -84.05567932128906,
        -28.57893180847168
      ],
      "type": "VEC3"
    },
    {
      "bufferView": 2,
      "byteOffset": 125064,
      "componentType": 5126,
      "count": 3530,
      "max": [
        1.0,
        1.0,
        1.0
      ],
      "min": [
        -1.0,
        -1.0,
        -1.0
      ],
      "type": "VEC3"
    },
    {
      "bufferView": 1,
      "byteOffset": 27568,
      "componentType": 5126,
      "count": 3530,
      "max": [
        0.7720142006874084,
        0.9998791813850403
      ],
      "min": [
        5.200505256652832e-06,
        0.0001208186149597168
      ],
      "type": "VEC2"
    },
    {
      "bufferView": 1,
      "byteOffset": 55808,
      "componentType": 5126,
      "count": 3530,
      "max": [
        0.7720142006874084,
        0.9998791813850403
      ],
      "min": [
        5.200505256652832e-06,
        0.0001208186149597168
      ],
      "type": "VEC2"
    },
    {
      "bufferView": 1,
      "byteOffset": 84048,
      "componentType": 5126,
      "count": 3530,
      "max": [
        0.7720142006874084,
        0.9998791813850403
      ],
      "min": [
        5.200505256652832e-06,
        0.0001208186149597168
      ],
      "type": "VEC2"
    },
    {
      "bufferView": 0,
      "byteOffset": 78744,
      "componentType": 5125,
      "count": 19680,
      "type": "SCALAR"
    },
    {
      "bufferView": 2,
      "byteOffset": 167424,
      "componentType": 5126,
      "count": 3530,
      "max": [
        91.28473663330078,
        84.05567932128906,
        28.57893180847168
      ],
      "min": [
        -91.28474426269531,
        -84.05567932128906,
        -28.57893180847168
      ],
      "type": "VEC3"
    },
    {
      "bufferView": 2,
      "byteOffset": 209784,
      "componentType": 5126,
      "count": 3530,
      "max": [
        1.0,
        1.0,
        1.0
      ],
      "min": [
        -1.0,
        -1.0,
        -1.0
      ],
      "type": "VEC3"
    },
    {
      "bufferView": 1,
      "byteOffset": 112288,
      "componentType": 5126,
      "count": 3530,
      "max": [
        0.7720142006874084,
        0.9998791813850403
      ],
      "min": [
        5.200505256652832e-06,
        0.0001208186149597168
      ],
      "type": "VEC2"
    },
    {
      "bufferView": 1,
      "byteOffset": 140528,
      "componentType": 5126,
      "count": 3530,
      "max": [
        0.7720142006874084,
        0.9998791813850403
      ],
      "min": [
        5.200505256652832e-06,
        0.0001208186149597168
      ],
      "type": "VEC2"
    },
    {
      "bufferView": 1,
      "byteOffset": 168768,
      "componentType": 5126,
      "count": 3530,
      "max": [
        0.7720142006874084,
        0.9998791813850403
      ],
      "min": [
        5.200505256652832e-06,
        0.0001208186149597168
      ],
      "type": "VEC2"
    },
    {
      "bufferView": 0,
      "byteOffset": 157464,
      "componentType": 5125,
      "count": 19680,
      "type": "SCALAR"
    },
    {
      "bufferView": 2,
      "byteOffset": 252144,
      "componentType": 5126,
      "count": 3530,
      "max": [
        91.28473663330078,
        84.05567932128906,
        28.57893180847168
      ],
      "min": [
        -91.28474426269531,
        -84.05567932128906,
        -28.57893180847168
      ],
      "type": "VEC3"
    },
    {
      "bufferView": 2,
      "byteOffset": 294504,
      "componentType": 5126,
      "count": 3530,
      "max": [
        1.0,
        1.0,
        1.0
      ],
      "min": [
        -1.0,
        -1.0,
        -1.0
      ],
      "type": "VEC3"
    },
    {
      "bufferView": 1,
      "byteOffset": 197008,
      "componentType": 5126,
      "count": 3530,
      "max": [
        0.7720142006874084,
        0.9998791813850403
      ],
      "min": [
        5.200505256652832e-06,
        0.0001208186149597168
      ],
      "type": "VEC2"
    },
    {
      "bufferView": 1,
      "byteOffset": 225248,
      "componentType": 5126,
      "count": 3530,
      "max": [
        0.7720142006874084,
        0.9998791813850403
      ],
      "min": [
        5.200505256652832e-06,
        0.0001208186149597168
      ],
      "type": "VEC2"
    },
    {
      "bufferView": 1,
      "byteOffset": 253488,
      "componentType": 5126,
      "count": 3530,
      "max": [
        0.7720142006874084,
        0.9998791813850403
      ],
      "min": [
        5.200505256652832e-06,
        0.0001208186149597168
      ],
      "type": "VEC2"
    },
    {
      "bufferView": 0,
      "byteOffset": 236184,
      "componentType": 5125,
      "count": 19680,
      "type": "SCALAR"
    },
    {
      "bufferView": 2,
      "byteOffset": 336864,
      "componentType": 5126,
      "count": 3530,
      "max": [
        91.28473663330078,
        84.05567932128906,
        28.57893180847168
      ],
      "min": [
        -91.28474426269531,
        -84.05567932128906,
        -28.57893180847168
      ],
      "type": "VEC3"
    },
    {
      "bufferView": 2,
      "byteOffset": 379224,
      "componentType": 5126,
      "count": 3530,
      "max": [
        1.0,
        1.0,
        1.0
      ],
      "min": [
        -1.0,
        -1.0,
        -1.0
      ],
      "type": "VEC3"
    },
    {
      "bufferView": 1,
      "byteOffset": 281728,
      "componentType": 5126,
      "count": 3530,
      "max": [
        0.7720142006874084,
        0.9998791813850403
      ],
      "min": [
        5.200505256652832e-06,
        0.0001208186149597168
      ],
      "type": "VEC2"
    },
    {
      "bufferView": 1,
      "byteOffset": 309968,
      "componentType": 5126,
      "count": 3530,
      "max": [
        0.7720142006874084,
        0.9998791813850403
      ],
      "min": [
        5.200505256652832e-06,
        0.0001208186149597168
      ],
      "type": "VEC2"
    },
    {
      "bufferView": 1,
      "byteOffset": 338208,
      "componentType": 5126,
      "count": 3530,
      "max": [
        0.7720142006874084,
        0.9998791813850403
      ],
      "min": [
        5.200505256652832e-06,
        0.0001208186149597168
      ],
      "type": "VEC2"
    },
    {
      "bufferView": 0,
      "byteOffset": 314904,
      "componentType": 5125,
      "count": 19680,
      "type": "SCALAR"
    },
    {
      "bufferView": 2,
      "byteOffset": 421584,
      "componentType": 5126,
      "count": 6628,
      "max": [
        14.96937084197998,
        160.35614013671875,
        14.96937084197998
      ],
      "min": [
        -14.96937084197998,
        -160.35614013671875,
        -14.969368934631348
      ],
      "type": "VEC3"
    },
    {
      "bufferView": 2,
      "byteOffset": 501120,
      "componentType": 5126,
      "count": 6628,
      "max": [
        1.0,
        1.0,
        1.0
      ],
      "min": [
        -1.0,
        -1.0,
        -1.0
      ],
      "type": "VEC3"
    },
    {
      "bufferView": 1,
      "byteOffset": 366448,
      "componentType": 5126,
      "count": 6628,
      "max": [
        0.3669233024120331,
        0.9999777674674988
      ],
      "min": [
        0.0002148151397705078,
        2.2292137145996094e-05
      ],
      "type": "VEC2"
    },
    {
      "bufferView": 1,
      "byteOffset": 419472,
      "componentType": 5126,
      "count": 6628,
      "max": [
        0.3669233024120331,
        0.9999777674674988
      ],
      "min": [
        0.0002148151397705078,
        2.2292137145996094e-05
      ],
      "type": "VEC2"
    },
    {
      "bufferView": 1,
      "byteOffset": 472496,
      "componentType": 5126,
      "count": 6628,
      "max": [
        0.3669233024120331,
        0.9999777674674988
      ],
      "min": [
        0.0002148151397705078,
        2.2292137145996094e-05
      ],
      "type": "VEC2"
    },
    {
      "bufferView": 0,
      "byteOffset": 393624,
      "componentType": 5125,
      "count": 38400,
      "type": "SCALAR"
    },
    {
      "bufferView": 2,
      "byteOffset": 580656,
      "componentType": 5126,
      "count": 6540,
      "max": [
        150.93695068359375,
        15.436450004577637,
        15.436450004577637
      ],
      "min": [
        -150.93695068359375,
        -15.436450004577637,
        -15.436448097229004
      ],
      "type": "VEC3"
    },
    {
      "bufferView": 2,
      "byteOffset": 659136,
      "componentType": 5126,
      "count": 6540,
      "max": [
        1.0,
        1.0,
        1.0
      ],
      "min": [
        -1.0,
        -1.0,
        -1.0
      ],
      "type": "VEC3"
    },
    {
      "bufferView": 1,
      "byteOffset": 525520,
      "componentType": 5126,
      "count": 6540,
      "max": [
        0.4750388264656067,
        0.9998782873153687
      ],
      "min": [
        0.0001892000436782837,
        0.00012174248695373535
      ],
      "type": "VEC2"
    },
    {
      "bufferView": 1,
      "byteOffset": 577840,
      "componentType": 5126,
      "count": 6540,
      "max": [
        0.4750388264656067,
        0.9998782873153687
      ],
      "min": [
        0.0001892000436782837,
        0.00012174248695373535
      ],
      "type": "VEC2"
    },
    {
      "bufferView": 1,
      "byteOffset": 630160,
      "componentType": 5126,
      "count": 6540,
      "max": [
        0.4750388264656067,
        0.9998782873153687
      ],
      "min": [
        0.0001892000436782837,
        0.00012174248695373535
      ],
      "type": "VEC2"
    },
    {
      "bufferView": 0,
      "byteOffset": 547224,
      "componentType": 5125,
      "count": 38400,
      "type": "SCALAR"
    }
  ],
  "asset": {
    "extras": {
      "author": "pooiloui2 (https://sketchfab.com/pooiloui2)",
      "license": "CC-BY-4.0 (http://creativecommons.org/licenses/by/4.0/)",
      "source": "https://sketchfab.com/3d-models/scope-2ed801838cfc47cf87c0a178a7a7835f",
      "title": "Scope"
    },
    "generator": "Sketchfab-12.68.0",
    "version": "2.0"
  },
  "bufferViews": [
    {
      "buffer": 0,
      "byteLength": 700824,
      "name": "floatBufferViews",
      "target": 34963
    },
    {
      "buffer": 0,
      "byteLength": 682480,
      "byteOffset": 700824,
      "byteStride": 8,
      "name": "floatBufferViews",
      "target": 34962
    },
    {
      "buffer": 0,
      "byteLength": 737616,
      "byteOffset": 1383304,
      "byteStride": 12,
      "name": "floatBufferViews",
      "target": 34962
    }
  ],
  "buffers": [
    {
      "byteLength": 2120920,
      "uri": "scene.bin"
    }
  ],
  "images": [
    {
      "uri": "textures/material_baseColor.png"
    },
    {
      "uri": "textures/material_1_baseColor.png"
    },
    {
      "uri": "textures/material_1_metallicRoughness.png"
    },
    {
      "uri": "textures/material_2_metallicRoughness.png"
    },
    {
      "uri": "textures/material_3_baseColor.png"
    },
    {
      "uri": "textures/material_3_metallicRoughness.png"
    },
    {
      "uri": "textures/material_6_baseColor.png"
    },
    {
      "uri": "textures/material_6_metallicRoughness.png"
    },
    {
      "uri": "textures/material_7_baseColor.png"
    },
    {
      "uri": "textures/material_7_metallicRoughness.png"
    }
  ],
  "materials": [
    {
      "alphaMode": "BLEND",
      "doubleSided": true,
      "name": "material",
      "pbrMetallicRoughness": {
        "baseColorTexture": {
          "index": 0
        }
      }
    },
    {
      "doubleSided": true,
      "name": "material_1",
      "pbrMetallicRoughness": {
        "baseColorTexture": {
          "index": 1
        },
        "metallicRoughnessTexture": {
          "index": 2,
          "texCoord": 1
        }
      }
    },
    {
      "doubleSided": true,
      "name": "material_2",
      "occlusionTexture": {
        "index": 3,
        "strength": 0.0
      },
      "pbrMetallicRoughness": {
        "baseColorFactor": [
          0.0,
          0.0,
          0.0,
          1.0
        ],
        "metallicFactor": 0.0,
        "metallicRoughnessTexture": {
          "index": 3
        }
      }
    },
    {
      "doubleSided": true,
      "name": "material_3",
      "pbrMetallicRoughness": {
        "baseColorTexture": {
          "index": 4
        },
        "metallicRoughnessTexture": {
          "index": 5
        }
      }
    },
    {
      "doubleSided": true,
      "name": "material_4",
      "pbrMetallicRoughness": {
        "baseColorTexture": {
          "index": 4
        },
        "metallicRoughnessTexture": {
          "index": 5
        }
      }
    },
    {
      "doubleSided": true,
      "name": "material_5",
      "pbrMetallicRoughness": {
        "baseColorTexture": {
          "index": 4
        },
        "metallicRoughnessTexture": {
          "index": 5
        }
      }
    },
    {
      "doubleSided": true,
      "name": "material_6",
      "pbrMetallicRoughness": {
        "baseColorTexture": {
          "index": 6
        },
        "metallicRoughnessTexture": {
          "index": 7
        }
      }
    },
    {
      "doubleSided": true,
      "name": "material_7",
      "pbrMetallicRoughness": {
        "baseColorTexture": {
          "index": 8
        },
        "metallicFactor": 0.0,
        "metallicRoughnessTexture": {
          "index": 9
        }
      }
    }
  ],
  "meshes": [
    {
      "name": "Object_0",
      "primitives": [
        {
          "attributes": {
            "NORMAL": 1,
            "POSITION": 0,
            "TEXCOORD_0": 2
          },
          "indices": 3,
          "material": 0,
          "mode": 4
        }
      ]
    },
    {
      "name": "Object_1",
      "primitives": [
        {
          "attributes": {
            "NORMAL": 5,
            "POSITION": 4,
            "TEXCOORD_0": 6,
            "TEXCOORD_1": 6
          },
          "indices": 7,
          "material": 1,
          "mode": 4
        }
      ]
    },
    {
      "name": "Object_2",
      "primitives": [
        {
          "attributes": {
            "NORMAL": 9,
            "POSITION": 8,
            "TEXCOORD_0": 10,
            "TEXCOORD_1": 11,
            "TEXCOORD_2": 12
          },
          "indices": 13,
          "material": 2,
          "mode": 4
        }
      ]
    },
    {
      "name": "Object_3",
      "primitives": [
        {
          "attributes": {
            "NORMAL": 15,
            "POSITION": 14,
            "TEXCOORD_0": 16,
            "TEXCOORD_1": 17,
            "TEXCOORD_2": 18
          },
          "indices": 19,
          "material": 3,
          "mode": 4
        }
      ]
    },
    {
      "name": "Object_4",
      "primitives": [
        {
          "attributes": {
            "NORMAL": 21,
            "POSITION": 20,
            "TEXCOORD_0": 22,
            "TEXCOORD_1": 23,
            "TEXCOORD_2": 24
          },
          "indices": 25,
          "material": 4,
          "mode": 4
        }
      ]
    },
    {
      "name": "Object_5",
      "primitives": [
        {
          "attributes": {
            "NORMAL": 27,
            "POSITION": 26,
            "TEXCOORD_0": 28,
            "TEXCOORD_1": 29,
            "TEXCOORD_2": 30
          },
          "indices": 31,
          "material": 5,
          "mode": 4
        }
      ]
    },
    {
      "name": "Object_6",
      "primitives": [
        {
          "attributes": {
            "NORMAL": 33,
            "POSITION": 32,
            "TEXCOORD_0": 34,
            "TEXCOORD_1": 35,
            "TEXCOORD_2": 36
          },
          "indices": 37,
          "material": 6,
          "mode": 4
        }
      ]
    },
    {
      "name": "Object_7",
      "primitives": [
        {
          "attributes": {
            "NORMAL": 39,
            "POSITION": 38,
            "TEXCOORD_0": 40,
            "TEXCOORD_1": 41,
            "TEXCOORD_2": 42
          },
          "indices": 43,
          "material": 7,
          "mode": 4
        }
      ]
    }
  ],
  "nodes": [
    {
      "children": [
        1
      ],
      "matrix": [
        1.0,
        0.0,
        0.0,
        0.0,
        0.0,
        2.220446049250313e-16,
        -1.0,
        0.0,
        0.0,
        1.0,
        2.220446049250313e-16,
        0.0,
        0.0,
        0.0,
        0.0,
        1.0
      ],
      "name": "Sketchfab_model"
    },
    {
      "children": [
        2
      ],
      "name": "root"
    },
    {
      "children": [
        3
      ],
      "matrix": [
        1.0,
        0.0,
        0.0,
        0.0,
        0.0,
        2.220446049250313e-16,
        1.0,
        0.0,
        0.0,
        -1.0,
        2.220446049250313e-16,
        0.0,
        0.0,
        0.0,
        0.0,
        1.0
      ],
      "name": "GLTF_SceneRootNode"
    },
    {
      "children": [
        4,
        6,
        8,
        10,
        12,
        14,
        16,
        18
      ],
      "name": "root_8"
    },
    {
      "children": [
        5
      ],
      "matrix": [
        1.3559993505477905,
        0.0,
        0.0,
        0.0,
        0.0,
        0.6419995427131653,
        0.0,
        0.0,
        0.0,
        0.0,
        0.0010000000474974513,
        0.0,
        6.103515914901436e-08,
        3.051757957450718e-08,
        0.30000001192092896,
        1.0
      ],
      "name": "_0"
    },
    {
      "mesh": 0,
      "name": "Object_5"
    },
    {
      "children": [
        7
      ],
      "matrix": [
        0.0010000000474974513,
        0.0,
        0.0,
        0.0,
        0.0,
        0.0010000000474974513,
        0.0,
        0.0,
        0.0,
        0.0,
        0.0010000000474974513,
        0.0,
        0.12690457701683044,
        0.03382996842265129,
        0.2990459203720093,
        1.0
      ],
      "name": "_1"
    },
    {
      "mesh": 1,
      "name": "Object_7"
    },
    {
      "children": [
        9
      ],
      "matrix": [
        0.0010000000474974513,
        0.0,
        0.0,
        0.0,
        0.0,
        0.0010000000474974513,
        0.0,
        0.0,
        0.0,
        0.0,
        0.0010000000474974513,
        0.0,
        0.12690457701683044,
        0.03382996842265129,
        0.2990459203720093,
        1.0
      ],
      "name": "_2"
    },
    {
      "mesh": 2,
      "name": "Object_9"
    },
    {
      "children": [
        11
      ],
      "matrix": [
        0.0,
        0.0009999999310821295,
        0.0,
        0.0,
        -0.0009999999310821295,
        0.0,
        0.0,
        0.0,
        0.0,
        0.0,
        0.0010000000474974513,
        0.0,
        -0.04843585565686226,
        0.027014821767807007,
        0.2990459203720093,
        1.0
      ],
      "name": "_3"
    },
    {
      "mesh": 3,
      "name": "Object_11"
    },
    {
      "children": [
        13
      ],
      "matrix": [
        -1.685873853128011e-10,
        -0.0009999999310821152,
        0.0,
        0.0,
        0.0009999999310821152,
        -1.685873853128011e-10,
        0.0,
        0.0,
        0.0,
        0.0,
        0.0010000000474974513,
        0.0,
        0.13416822254657745,
        -0.13812077045440674,
        0.2990459203720093,
        1.0
      ],
      "name": "_4"
    },
    {
      "mesh": 4,
      "name": "Object_13"
    },
    {
      "children": [
        15
      ],
      "matrix": [
        -0.0010000000474974441,
        1.1920929521291826e-10,
        0.0,
        0.0,
        -1.1920929521291826e-10,
        -0.0010000000474974441,
        0.0,
        0.0,
        0.0,
        0.0,
        0.0010000000474974513,
        0.0,
        -0.04117220640182495,
        -0.14540666341781616,
        0.2990459203720093,
        1.0
      ],
      "name": "_5"
    },
    {
      "mesh": 5,
      "name": "Object_15"
    },
    {
      "children": [
        17
      ],
      "matrix": [
        0.0010000000474974513,
        0.0,
        0.0,
        0.0,
        0.0,
        0.0010000000474974513,
        0.0,
        0.0,
        0.0,
        0.0,
        0.0010000000474974513,
        0.0,
        0.04091079160571098,
        -0.053105637431144714,
        0.299798846244812,
        1.0
      ],
      "name": "_6"
    },
    {
      "mesh": 6,
      "name": "Object_17"
    },
    {
      "children": [
        19
      ],
      "matrix": [
        0.0010000000474974513,
        0.0,
        0.0,
        0.0,
        0.0,
        0.0010000000474974513,
        0.0,
        0.0,
        0.0,
        0.0,
        0.0010000000474974513,
        0.0,
        0.03891284763813019,
        -0.05398529767990112,
        0.3140908479690552,
        1.0
      ],
      "name": "_7"
    },
    {
      "mesh": 7,
      "name": "Object_19"
    }
  ],
  "samplers": [
    {
      "magFilter": 9729,
      "minFilter": 9987,
      "wrapS": 10497,
      "wrapT": 10497
    }
  ],
  "scene": 0,
  "scenes": [
    {
      "name": "Sketchfab_Scene",
      "nodes": [
        0
      ]
    }
  ],
  "textures": [
    {
      "sampler": 0,
      "source": 0
    },
    {
      "sampler": 0,
      "source": 1
    },
    {
      "sampler": 0,
      "source": 2
    },
    {
      "sampler": 0,
      "source": 3
    },
    {
      "sampler": 0,
      "source": 4
    },
    {
      "sampler": 0,
      "source": 5
    },
    {
      "sampler": 0,
      "source": 6
    },
    {
      "sampler": 0,
      "source": 7
    },
    {
      "sampler": 0,
      "source": 8
    },
    {
      "sampler": 0,
      "source": 9
    }
  ]
}
